<svg xmlns="http://www.w3.org/2000/svg" width="512" height="512" viewBox="0 0 512 512" version="1.1">
	<path d="M 255.050 32.041 C 249.237 33.247, 240.799 37.557, 237.488 41.013 C 232.458 46.263, 223.705 73.498, 222.459 87.774 L 221.762 95.769 211.131 93.022 C 205.284 91.511, 197.575 89.742, 194 89.091 C 183.151 87.115, 168.106 82.096, 156.423 76.556 C 142.990 70.186, 141.017 69.649, 136.008 70.998 C 130.384 72.512, 126.484 76.200, 125.036 81.372 C 123.263 87.703, 124.367 91.226, 131.495 102.004 C 137.121 110.510, 151.281 127.820, 153.977 129.486 C 154.550 129.840, 145.681 134.887, 134.270 140.701 C 122.858 146.516, 110.519 153.251, 106.850 155.668 C 99.536 160.486, 88.668 169.971, 82.406 177 C 63.135 198.631, 50.766 227.114, 46.495 259.700 C 44.763 272.911, 44.530 300.746, 46.047 313.026 C 50.062 345.501, 61.642 376.578, 79.760 403.500 C 110.200 448.731, 147.974 470.733, 208 478.195 C 214.949 479.059, 231.182 479.500, 256 479.500 C 295.829 479.500, 304.862 478.850, 326.670 474.414 C 363.708 466.880, 393.088 450.601, 415.658 425.108 C 442.972 394.257, 460.831 354.456, 465.953 313.026 C 467.470 300.746, 467.237 272.911, 465.505 259.700 C 460.678 222.876, 447.480 195.374, 421.896 168.825 C 417.828 164.604, 412.804 159.146, 410.731 156.696 C 405.837 150.911, 395.516 144.003, 380.356 136.366 L 368.179 130.232 372.177 126.366 C 382.288 116.591, 397.469 95.348, 398.581 89.417 C 400.173 80.935, 395.429 73.101, 387.492 71.102 C 381.909 69.697, 379.904 70.189, 368.865 75.674 C 357.815 81.165, 339.106 87.454, 328 89.412 C 316.414 91.455, 295.371 97.348, 286.793 100.952 L 279.733 103.918 280.240 91.709 C 280.797 78.272, 283.184 69.967, 289.020 61.156 C 295.898 50.773, 290.716 39.405, 276.718 34.168 C 270.091 31.688, 261.039 30.800, 255.050 32.041 M 251.600 46.419 C 247.059 48.105, 245.883 49.549, 246.241 53 C 246.657 57.017, 252.564 59.300, 262.541 59.300 C 272.918 59.300, 278.500 56.925, 278.500 52.510 C 278.500 47.710, 274.474 45.670, 264.255 45.294 C 258.354 45.077, 254.229 45.443, 251.600 46.419 M 220.773 153.555 C 193.708 160.116, 160.704 195.407, 147.648 231.750 C 146.215 235.738, 145.223 239, 145.444 239 C 145.664 239, 149.644 236.134, 154.288 232.632 C 166.448 223.460, 181.080 215.569, 200.425 207.749 C 222.836 198.690, 235.874 191.882, 242.625 185.712 C 249.679 179.264, 253.978 171.917, 253.991 166.285 C 254.016 155.026, 238.785 149.189, 220.773 153.555 M 280.667 153.222 C 278.559 153.781, 275.071 155.915, 272.917 157.964 C 269.714 161.011, 269 162.377, 269 165.455 C 269 170.838, 274.320 180.177, 280.715 186.023 C 286.796 191.580, 304.973 200.904, 324.500 208.482 C 342.622 215.514, 360.413 225.488, 373.404 235.898 C 375.551 237.618, 377.460 238.873, 377.647 238.687 C 378.380 237.953, 373.600 225.590, 369.401 217.361 C 349.848 179.041, 316.753 151.655, 290.540 152.103 C 287.218 152.160, 282.775 152.664, 280.667 153.222" stroke="none" fill="black" fill-rule="evenodd"/>
</svg>